<?xml version="1.0" standalone="no"?>
<!DOCTYPE svg PUBLIC "-//W3C//DTD SVG 20010904//EN"
 "http://www.w3.org/TR/2001/REC-SVG-20010904/DTD/svg10.dtd">
<svg version="1.0" xmlns="http://www.w3.org/2000/svg"
 width="1280.000000pt" height="1141.000000pt" viewBox="0 0 1280.000000 1141.000000"
 preserveAspectRatio="xMidYMid meet">
<metadata>
Created by potrace 1.15, written by Peter Selinger 2001-2017
</metadata>
<g transform="translate(0.000000,1141.000000) scale(0.100000,-0.100000)"
fill="#ffffff" stroke="none">
<path d="M6953 11396 c-26 -12 -1496 -1278 -5831 -5024 -380 -329 -659 -577
-669 -596 -25 -47 -22 -117 8 -159 13 -20 980 -849 2149 -1844 1169 -995 2616
-2226 3215 -2737 600 -510 1103 -935 1120 -943 36 -19 103 -20 141 -1 15 7 41
30 58 51 l31 39 3 1309 2 1309 2029 2 2030 3 27 21 c40 29 64 65 74 110 13 52
13 5466 0 5518 -10 45 -34 81 -74 110 l-27 21 -2032 3 -2032 2 3 1303 c2 716
0 1325 -3 1354 -7 56 -34 104 -76 136 -34 25 -105 31 -146 13z"/>
</g>
</svg>
