<?xml version="1.0" standalone="no"?>
<!DOCTYPE svg PUBLIC "-//W3C//DTD SVG 20010904//EN"
 "http://www.w3.org/TR/2001/REC-SVG-20010904/DTD/svg10.dtd">
<svg version="1.0" xmlns="http://www.w3.org/2000/svg"
 width="1280.000000pt" height="1153.000000pt" viewBox="0 0 1280.000000 1153.000000"
 preserveAspectRatio="xMidYMid meet">
<metadata>
Created by potrace 1.15, written by Peter Selinger 2001-2017
</metadata>
<g transform="translate(0.000000,1153.000000) scale(0.100000,-0.100000)"
fill="#ffffff" stroke="none">
<path d="M6280 11480 c-36 -26 -450 -331 -920 -677 -470 -346 -1297 -954
-1837 -1352 l-983 -723 0 -2963 0 -2962 1903 -1401 1902 -1400 3 2885 c1 1586
1 4180 0 5763 l-3 2879 -65 -49z"/>
<path d="M0 5765 l0 -2965 900 0 900 0 0 2965 0 2965 -900 0 -900 0 0 -2965z"/>
<path d="M9720 5864 c-568 -51 -1088 -255 -1540 -604 -122 -94 -386 -358 -480
-480 -318 -413 -509 -861 -587 -1377 -27 -182 -25 -619 5 -808 78 -496 270
-939 582 -1345 96 -125 369 -396 495 -491 406 -309 838 -493 1340 -571 203
-32 617 -32 820 0 627 98 1162 368 1605 812 333 332 561 704 704 1148 96 298
130 527 130 867 0 340 -34 569 -130 867 -339 1052 -1243 1811 -2334 1963 -110
15 -512 28 -610 19z m490 -645 c334 -39 701 -176 975 -367 44 -30 82 -57 84
-58 4 -4 -3096 -3104 -3104 -3104 -1 0 -32 44 -68 98 -384 577 -478 1287 -255
1942 48 142 167 386 245 502 231 345 525 603 888 779 388 188 801 258 1235
208z m1583 -981 c138 -207 267 -507 317 -736 29 -135 40 -214 49 -358 57 -931
-481 -1800 -1344 -2170 -284 -122 -552 -177 -870 -177 -443 -1 -837 117 -1217
365 -60 39 -108 73 -108 77 0 7 3093 3101 3100 3101 3 0 36 -46 73 -102z"/>
</g>
</svg>
